<?xml version="1.0" encoding="us-ascii" standalone="no"?><svg xmlns="http://www.w3.org/2000/svg" xmlns:xlink="http://www.w3.org/1999/xlink" contentStyleType="text/css" height="742px" preserveAspectRatio="none" style="width:1321px;height:742px;background:#FFFFFF;" version="1.1" viewBox="0 0 1321 742" width="1321px" zoomAndPan="magnify"><defs/><g><text fill="#000000" font-family="sans-serif" font-size="14" font-weight="bold" lengthAdjust="spacing" textLength="348" x="479.5" y="24.5332">University Scheduling System - Use Case Diagram</text><!--cluster University Scheduling System--><g id="cluster_University Scheduling System"><rect fill="none" height="246" rx="2.5" ry="2.5" style="stroke:#181818;stroke-width:1.0;" width="1233" x="82" y="104.1094"/><text fill="#000000" font-family="sans-serif" font-size="14" font-weight="bold" lengthAdjust="spacing" textLength="208" x="594.5" y="120.6426">University Scheduling System</text></g><g id="elem_loadData"><ellipse cx="167.1908" cy="240.1822" fill="#F1F1F1" rx="58.6908" ry="15.5728" style="stroke:#000000;stroke-width:0.5;"/><text fill="#000000" font-family="sans-serif" font-size="14" lengthAdjust="spacing" textLength="66" x="131.1908" y="244.6988">Load Data</text></g><g id="elem_validateData"><ellipse cx="167.1119" cy="156.3318" fill="#F1F1F1" rx="69.1119" ry="16.2224" style="stroke:#000000;stroke-width:0.5;"/><text fill="#000000" font-family="sans-serif" font-size="14" lengthAdjust="spacing" textLength="85" x="121.6119" y="160.8484">Validate Data</text></g><g id="elem_previewData"><ellipse cx="367.4277" cy="242.1949" fill="#F1F1F1" rx="68.4277" ry="16.0855" style="stroke:#000000;stroke-width:0.5;"/><text fill="#000000" font-family="sans-serif" font-size="14" lengthAdjust="spacing" textLength="83" x="322.9277" y="246.7115">Preview Data</text></g><g id="elem_viewStats"><ellipse cx="367.5039" cy="157.1102" fill="#F1F1F1" rx="70.5039" ry="16.5008" style="stroke:#000000;stroke-width:0.5;"/><text fill="#000000" font-family="sans-serif" font-size="14" lengthAdjust="spacing" textLength="89" x="320.0039" y="161.6268">View Statistics</text></g><g id="elem_editData"><ellipse cx="580.2806" cy="156.1323" fill="#F1F1F1" rx="52.7806" ry="15.5229" style="stroke:#000000;stroke-width:0.5;"/><text fill="#000000" font-family="sans-serif" font-size="14" lengthAdjust="spacing" textLength="58" x="548.2806" y="160.6489">Edit Data</text></g><g id="elem_configSettings"><ellipse cx="580.597" cy="225.2288" fill="#F1F1F1" rx="81.097" ry="18.6194" style="stroke:#000000;stroke-width:0.5;"/><text fill="#000000" font-family="sans-serif" font-size="14" lengthAdjust="spacing" textLength="117" x="521.5843" y="229.1075">Configure Settings</text></g><g id="elem_advancedSettings"><ellipse cx="580.5075" cy="315.3109" fill="#F1F1F1" rx="81.5075" ry="18.7015" style="stroke:#000000;stroke-width:0.5;"/><text fill="#000000" font-family="sans-serif" font-size="14" lengthAdjust="spacing" textLength="118" x="521.1675" y="319.1398">Advanced Settings</text></g><g id="elem_startScheduling"><ellipse cx="798.9763" cy="316.2046" fill="#F1F1F1" rx="75.9763" ry="17.5953" style="stroke:#000000;stroke-width:0.5;"/><text fill="#000000" font-family="sans-serif" font-size="14" lengthAdjust="spacing" textLength="104" x="744.0467" y="320.7051">Start Scheduling</text></g><g id="elem_analyzeResults"><ellipse cx="1010.481" cy="315.9056" fill="#F1F1F1" rx="74.481" ry="17.2962" style="stroke:#000000;stroke-width:0.5;"/><text fill="#000000" font-family="sans-serif" font-size="14" lengthAdjust="spacing" textLength="100" x="957.481" y="320.4222">Analyze Results</text></g><g id="elem_exportTimetable"><ellipse cx="1222.7363" cy="316.3566" fill="#F1F1F1" rx="76.7363" ry="17.7473" style="stroke:#000000;stroke-width:0.5;"/><text fill="#000000" font-family="sans-serif" font-size="14" lengthAdjust="spacing" textLength="106" x="1167.2006" y="320.7648">Export Timetable</text></g><!--entity User--><g id="elem_User"><ellipse cx="20.5" cy="456.6094" fill="#F1F1F1" rx="8" ry="8" style="stroke:#000000;stroke-width:0.5;"/><path d="M20.5,464.6094 L20.5,491.6094 M7.5,472.6094 L33.5,472.6094 M20.5,491.6094 L7.5,506.6094 M20.5,491.6094 L33.5,506.6094 " fill="none" style="stroke:#000000;stroke-width:0.5;"/><text fill="#000000" font-family="sans-serif" font-size="14" lengthAdjust="spacing" textLength="29" x="6" y="522.6426">User</text></g><g id="elem_GMN32"><path d="M507,44.6094 L507,87.3125 L654,87.3125 L654,54.6094 L644,44.6094 L507,44.6094 " fill="#FFFFFF" style="stroke:#000000;stroke-width:0.5;"/><path d="M644,44.6094 L644,54.6094 L654,54.6094 L644,44.6094 " fill="#FFFFFF" style="stroke:#000000;stroke-width:1.0;"/><text fill="#000000" font-family="sans-serif" font-size="13" lengthAdjust="spacing" textLength="126" x="513" y="63.1045">Preview allows editing</text><text fill="#000000" font-family="sans-serif" font-size="13" lengthAdjust="spacing" textLength="98" x="513" y="79.4561">and configuration</text></g><g id="elem_GMN35"><path d="M724.5,44.6094 L724.5,87.3125 L873.5,87.3125 L873.5,54.6094 L863.5,44.6094 L724.5,44.6094 " fill="#FFFFFF" style="stroke:#000000;stroke-width:0.5;"/><path d="M863.5,44.6094 L863.5,54.6094 L873.5,54.6094 L863.5,44.6094 " fill="#FFFFFF" style="stroke:#000000;stroke-width:1.0;"/><text fill="#000000" font-family="sans-serif" font-size="13" lengthAdjust="spacing" textLength="128" x="730.5" y="63.1045">Advanced settings are</text><text fill="#000000" font-family="sans-serif" font-size="13" lengthAdjust="spacing" textLength="112" x="730.5" y="79.4561">optional extensions</text></g><!--link loadData to validateData--><g id="link_loadData_validateData"><path d="M167,224.3094 C167,209.3894 167,193.1194 167,178.1194 " fill="none" id="loadData-to-validateData" style="stroke:#181818;stroke-width:1.0;stroke-dasharray:7.0,7.0;"/><polygon fill="#181818" points="167,172.1194,163,181.1194,167,177.1194,171,181.1194,167,172.1194" style="stroke:#181818;stroke-width:1.0;"/><text fill="#000000" font-family="sans-serif" font-size="13" lengthAdjust="spacing" textLength="55" x="127.5" y="203.8545">&#171;include&#187;</text></g><!--link previewData to viewStats--><g id="link_previewData_viewStats"><path d="M367.5,225.7194 C367.5,210.7694 367.5,194.7694 367.5,179.7394 " fill="none" id="previewData-to-viewStats" style="stroke:#181818;stroke-width:1.0;stroke-dasharray:7.0,7.0;"/><polygon fill="#181818" points="367.5,173.7394,363.5,182.7394,367.5,178.7394,371.5,182.7394,367.5,173.7394" style="stroke:#181818;stroke-width:1.0;"/><text fill="#000000" font-family="sans-serif" font-size="13" lengthAdjust="spacing" textLength="53" x="329" y="205.3545">&#171;extend&#187;</text></g><!--link configSettings to advancedSettings--><g id="link_configSettings_advancedSettings"><path d="M580.5,243.7294 C580.5,259.1694 580.5,275.0194 580.5,290.4594 " fill="none" id="configSettings-to-advancedSettings" style="stroke:#181818;stroke-width:1.0;stroke-dasharray:7.0,7.0;"/><polygon fill="#181818" points="580.5,296.4594,584.5,287.4594,580.5,291.4594,576.5,287.4594,580.5,296.4594" style="stroke:#181818;stroke-width:1.0;"/><text fill="#000000" font-family="sans-serif" font-size="13" lengthAdjust="spacing" textLength="53" x="542" y="275.6045">&#171;extend&#187;</text></g><!--link User to loadData--><g id="link_User_loadData"><path d="M25.55,447.8894 C31.63,395.8994 44.62,307.8394 65,283.1094 C78.88,266.2694 94.8271,257.7232 114.5471,251.3932 " fill="none" id="User-to-loadData" style="stroke:#181818;stroke-width:1.0;"/><polygon fill="#181818" points="120.26,249.5594,110.4681,248.5015,115.4993,251.0875,112.9132,256.1187,120.26,249.5594" style="stroke:#181818;stroke-width:1.0;"/></g><!--link User to previewData--><g id="link_User_previewData"><path d="M25.17,448.0994 C29.88,418.7994 40.59,379.5094 65,354.1094 C101.23,316.4194 239.9642,275.4915 314.9842,255.4015 " fill="none" id="User-to-previewData" style="stroke:#181818;stroke-width:1.0;"/><polygon fill="#181818" points="320.78,253.8494,311.0516,252.3136,315.9502,255.1428,313.1211,260.0413,320.78,253.8494" style="stroke:#181818;stroke-width:1.0;"/></g><!--link User to editData--><g id="link_User_editData"><path d="M35.04,472.3594 C45.01,462.1894 59.34,448.9594 74,440.1094 C226.04,348.2794 300.98,388.1394 438,275.1094 C474.15,245.2894 462.31,218.2594 499,189.1094 C511.42,179.2394 521.553,173.9746 535.843,168.7646 " fill="none" id="User-to-editData" style="stroke:#181818;stroke-width:1.0;"/><polygon fill="#181818" points="541.48,166.7094,531.6543,166.0342,536.7825,168.422,534.3946,173.5502,541.48,166.7094" style="stroke:#181818;stroke-width:1.0;"/></g><!--link User to configSettings--><g id="link_User_configSettings"><path d="M35.07,482.1694 C43.58,479.2194 54.82,475.5794 65,473.1094 C241.88,430.2194 336.02,530.3794 469,406.1094 C511.37,366.5094 465.97,326.7794 499,279.1094 C510.02,263.1994 522.1724,253.652 537.9524,244.692 " fill="none" id="User-to-configSettings" style="stroke:#181818;stroke-width:1.0;"/><polygon fill="#181818" points="543.17,241.7294,533.3686,242.6949,538.822,244.1982,537.3187,249.6516,543.17,241.7294" style="stroke:#181818;stroke-width:1.0;"/></g><!--link User to startScheduling--><g id="link_User_startScheduling"><path d="M35.02,506.5494 C58.07,537.1494 108.13,593.1094 166,593.1094 C166,593.1094 166,593.1094 581.5,593.1094 C713.64,593.1094 775.5611,400.7933 792.0111,339.6533 " fill="none" id="User-to-startScheduling" style="stroke:#181818;stroke-width:1.0;"/><polygon fill="#181818" points="793.57,333.8594,787.369,341.511,792.2709,338.6877,795.0943,343.5896,793.57,333.8594" style="stroke:#181818;stroke-width:1.0;"/></g><!--link User to analyzeResults--><g id="link_User_analyzeResults"><path d="M33.9,526.3894 C53.11,578.5394 95.39,664.1094 166,664.1094 C166,664.1094 166,664.1094 800,664.1094 C955.85,664.1094 998.0102,410.7136 1006.8202,339.8036 " fill="none" id="User-to-analyzeResults" style="stroke:#181818;stroke-width:1.0;"/><polygon fill="#181818" points="1007.56,333.8494,1002.4809,342.2875,1006.9435,338.8112,1010.4198,343.2739,1007.56,333.8494" style="stroke:#181818;stroke-width:1.0;"/></g><!--link User to exportTimetable--><g id="link_User_exportTimetable"><path d="M26.18,526.1294 C36.97,595.9694 70.45,735.1094 166,735.1094 C166,735.1094 166,735.1094 1011.5,735.1094 C1193.97,735.1094 1217.6647,419.5948 1220.7947,339.8448 " fill="none" id="User-to-exportTimetable" style="stroke:#181818;stroke-width:1.0;"/><polygon fill="#181818" points="1221.03,333.8494,1216.6801,342.6856,1220.8339,338.8455,1224.674,342.9993,1221.03,333.8494" style="stroke:#181818;stroke-width:1.0;"/></g><!--link User to advancedSettings--><g id="link_User_advancedSettings"><path d="M35.06,490.9794 C92.2,506.4894 317.38,559.3994 469,477.1094 C526.9,445.6894 558.3479,374.8475 571.2579,339.3775 " fill="none" id="User-to-advancedSettings" style="stroke:#181818;stroke-width:1.0;"/><polygon fill="#181818" points="573.31,333.7394,566.4731,340.8285,571.5999,338.4378,573.9906,343.5647,573.31,333.7394" style="stroke:#181818;stroke-width:1.0;"/></g><!--link loadData to previewData--><g id="link_loadData_previewData"><path d="M225.68,240.6894 C248.57,240.9194 269.0703,241.1288 292.8603,241.3688 " fill="none" id="loadData-to-previewData" style="stroke:#181818;stroke-width:1.0;"/><polygon fill="#181818" points="298.86,241.4294,289.9008,237.3388,293.8603,241.3789,289.8201,245.3384,298.86,241.4294" style="stroke:#181818;stroke-width:1.0;"/></g><!--link previewData to editData--><g id="link_previewData_editData"><path d="M420.93,231.9294 C466.82,216.1694 525.6478,191.8834 556.4078,173.9334 " fill="none" id="previewData-to-editData" style="stroke:#181818;stroke-width:1.0;"/><polygon fill="#181818" points="561.59,170.9094,551.8007,171.9907,557.2715,173.4294,555.8328,178.9003,561.59,170.9094" style="stroke:#181818;stroke-width:1.0;"/></g><!--link editData to previewData--><g id="link_editData_previewData"><path d="M533.37,163.5294 C487.43,178.5694 424.4065,204.4286 392.0265,223.5486 " fill="none" id="editData-to-previewData" style="stroke:#181818;stroke-width:1.0;"/><polygon fill="#181818" points="386.86,226.5994,396.6436,225.4676,391.1654,224.0571,392.5759,218.5789,386.86,226.5994" style="stroke:#181818;stroke-width:1.0;"/></g><!--link previewData to configSettings--><g id="link_previewData_configSettings"><path d="M432.38,236.9594 C454.94,235.1494 474.5492,233.5593 497.9792,231.6793 " fill="none" id="previewData-to-configSettings" style="stroke:#181818;stroke-width:1.0;"/><polygon fill="#181818" points="503.96,231.1994,494.6689,227.932,498.976,231.5993,495.3088,235.9064,503.96,231.1994" style="stroke:#181818;stroke-width:1.0;"/></g><!--link configSettings to startScheduling--><g id="link_configSettings_startScheduling"><path d="M620.21,241.3794 C660.22,258.1994 716.6887,281.9346 755.8987,298.4146 " fill="none" id="configSettings-to-startScheduling" style="stroke:#181818;stroke-width:1.0;"/><polygon fill="#181818" points="761.43,300.7394,754.6829,293.5646,756.8206,298.802,751.5832,300.9397,761.43,300.7394" style="stroke:#181818;stroke-width:1.0;"/></g><!--link startScheduling to analyzeResults--><g id="link_startScheduling_analyzeResults"><path d="M875.04,316.1094 C894.77,316.1094 910.02,316.1094 929.68,316.1094 " fill="none" id="startScheduling-to-analyzeResults" style="stroke:#181818;stroke-width:1.0;"/><polygon fill="#181818" points="935.68,316.1094,926.68,312.1094,930.68,316.1094,926.68,320.1094,935.68,316.1094" style="stroke:#181818;stroke-width:1.0;"/></g><!--link analyzeResults to exportTimetable--><g id="link_analyzeResults_exportTimetable"><path d="M1085.24,316.1094 C1104.86,316.1094 1120.08,316.1094 1139.8,316.1094 " fill="none" id="analyzeResults-to-exportTimetable" style="stroke:#181818;stroke-width:1.0;"/><polygon fill="#181818" points="1145.8,316.1094,1136.8,312.1094,1140.8,316.1094,1136.8,320.1094,1145.8,316.1094" style="stroke:#181818;stroke-width:1.0;"/></g><!--link previewData to GMN32--><g id="link_previewData_GMN32"><path d="M391.28,227.1094 C405.29,217.4694 423.31,204.3194 438,191.1094 C467.94,164.1794 468.95,150.9094 499,124.1094 C513.66,111.0394 531.22,98.1094 546.2,87.7794 " fill="none" id="previewData-GMN32" style="stroke:#181818;stroke-width:1.0;stroke-dasharray:7.0,7.0;"/></g><!--link configSettings to GMN35--><g id="link_configSettings_GMN35"><path d="M624.99,209.4094 C637.5,203.9294 650.78,197.0994 662,189.1094 C694.27,166.1294 693.68,150.7594 723,124.1094 C737.13,111.2694 753.85,98.1594 767.92,87.6494 " fill="none" id="configSettings-GMN35" style="stroke:#181818;stroke-width:1.0;stroke-dasharray:7.0,7.0;"/></g><!--SRC=[XLNBJXin5DtFLrob2s11rNM58l5eLrLLDQLxCsE2nMGSUPm0hLYK9e6ctq43QLE4a83yYVqtlTVEF8befCcCpttu-jo7Ly1CxONvOyVs7Cp43kpG_3KFvW7mSso_smix0lE0BroY_2UichaTeicDNwy1Mim1WNjyUG-8_BO3GCM1_U6niRap4tCRh82MNNnWJsejEn09nKCjP1B4V5-JG8dsWIxXQ8AEHhZ1X48fXHXeeMCEkudeSvKAVGAjy817lLWaRMYTf9ftO1rsKmxR3Fzs16ihrd4EAs7YmjoQNnIZ7I-DceLQAcYWAzK0bf9FvVpCa0QamckFp2E-XrKFkCtOZW8w3KlQ66xZkNWRy3K0S8ufgecPmkBZpapnr3Tk0mpy5fTNvXggoLYwDS3gEyaYs66QhL7qCQveGPBFB1OHqxoGzXT8fl51yRxWHuL2rmEv1nAsDDCYrI9ClG_424f9uKqaT67DSPMPRijaNxHxYaEBQuqiUElGmHb4YfjHdoKXZwfwR86MDN5NfKkyEiMKm09p7XCMdtpXy96dlLWl_7bi0RdGZxiItNqI7QxPNipz2HoOOu5Fs9ooPC-Ab4tDlKy0kD8Tk3x30ZDpDCXI02-R5SBXDMniY2ICUn5lDb6nHBRJpOXrYlnOyoHoUbNEIBNEJjNYD6k3Qk1NBk1AUs3KpnRZAcgEAkq2vl995Qu5r3EmljuioYz7oXMLWtcXv4YjBdAydjvSK4jeuRgMmSAWNb54qXIxwvizozWQ-abOOkivUe8yq_M3bZDREM_syL-B6X-r4bZ6J6szZAJgSYbTI0gnW0UTqSIZSrDjtoCjCtokWqJYGF5pNExNvaKsJbWSooC_3dnBiYHQdAYdc9lyMAb0heAQmoVp8HyFQNPufZZYiaj-M0okx5FyJajEARKuix4bARcNU7zDCCzZSBqxStX-tppQSxm6qaEHT1dU8MvARoebZxPbZ3V3YrVkHo3T55jIHLpLHLXb8Tv3ouNlCQGj5XwsbUmbqKBwrlqowHAxq-0V]--></g></svg>